{"title":"Val 2010 Debatten TV4 20100916.avi","uid":8774202,"size":460485724,"categoryP":"video","categoryS":"tv_shows","magnet":"?xt=urn:btih:031d1cd6c1def47be20d08a937303b1bef444eca&amp;dn=Val+2010+Debatten+TV4+20100916.avi&amp;tr=udp%3A%2F%2Ftracker.openbittorrent.com%3A80&amp;tr=udp%3A%2F%2Fopen.demonii.com%3A1337&amp;tr=udp%3A%2F%2Ftracker.coppersurfer.tk%3A6969&amp;tr=udp%3A%2F%2Fexodus.desync.com%3A6969","seeders":0,"leechers":0,"uploader":null,"files":1,"time":1375513260,"description":"Val 2010 Debatten TV4 20100916.avi\n\nGeneral\nComplete name                            : Val 2010 Debatten TV4 20100916.avi\nFormat                                   : AVI\nFormat/Info                              : Audio Video Interleave\nFile size                                : 439 MiB\nDuration                                 : 1h 36mn\nOverall bit rate                         : 638 Kbps\n\nVideo\nID                                       : 0\nFormat                                   : MPEG-4 Visual\nFormat profile                           : Advanced Simple@L5\nFormat settings, BVOP                    : 2\nFormat settings, QPel                    : No\nFormat settings, GMC                     : No warppoints\nFormat settings, Matrix                  : Default (H.263)\nCodec ID                                 : XVID\nCodec ID/Hint                            : XviD\nDuration                                 : 1h 36mn\nBit rate                                 : 500 Kbps\nWidth                                    : 352 pixels\nHeight                                   : 214 pixels\nDisplay aspect ratio                     : 16:10\nFrame rate                               : 25.000 fps\nColor space                              : YUV\nChroma subsampling                       : 4:2:0\nBit depth                                : 8 bits\nScan type                                : Progressive\nCompression mode                         : Lossy\nBits/(Pixel*Frame)                       : 0.265\nStream size                              : 344 MiB (78%)\nWriting library                          : XviD 1.2.1 (UTC 2008-12-04)\n\nAudio\nID                                       : 1\nFormat                                   : MPEG Audio\nFormat version                           : Version 1\nFormat profile                           : Layer 2\nCodec ID                                 : 50\nDuration                                 : 1h 36mn\nSource duration                          : 1h 36mn\nBit rate mode                            : Constant\nBit rate                                 : 128 Kbps\nChannel(s)                               : 2 channels\nSampling rate                            : 44.1 KHz\nCompression mode                         : Lossy\nStream size                              : 88.2 MiB (20%)\nAlignment                                : Aligned on interleaves\nInterleave, duration                     : 40 ms (1.00 video frame)","torrent":{"xt":"urn:btih:031d1cd6c1def47be20d08a937303b1bef444eca","amp;dn":"Val+2010+Debatten+TV4+20100916.avi","amp;tr":["udp%3A%2F%2Ftracker.openbittorrent.com%3A80","udp%3A%2F%2Fopen.demonii.com%3A1337","udp%3A%2F%2Ftracker.coppersurfer.tk%3A6969","udp%3A%2F%2Fexodus.desync.com%3A6969"],"infoHash":"031d1cd6c1def47be20d08a937303b1bef444eca","infoHashBuffer":{"type":"Buffer","data":[3,29,28,214,193,222,244,123,226,13,8,169,55,48,59,27,239,68,78,202]},"announce":[],"urlList":[]}}